<svg xmlns="http://www.w3.org/2000/svg" width="180" height="180" viewBox="0 0 180 180">
<g>
<path d="M 0.01 122.75 L 0.00 180.00 L 0.00 59.21 L 2.90 56.11 C5.19,53.65 6.61,53.01 9.65,53.04 C11.77,53.05 14.55,53.65 15.83,54.36 C17.11,55.07 32.45,69.94 49.91,87.40 L 81.67 119.14 L 94.08 107.25 C100.91,100.71 108.44,93.62 110.82,91.50 L 115.13 87.65 L 122.77 95.29 C126.97,99.49 130.20,103.05 129.94,103.21 C129.48,103.50 116.86,115.51 96.87,134.70 C85.84,145.29 82.64,147.07 78.26,145.07 C75.54,143.83 4.77,72.65 1.76,68.12 C0.09,65.61 0.01,67.97 0.01,122.75 Z" fill="rgb(45,181,224)"/>
<path d="M 141.42 84.46 C162.28,105.66 179.49,123.00 179.67,123.00 C179.85,123.00 180.00,95.32 180.00,61.50 L 180.00 131.85 L 177.41 134.92 C175.22,137.53 174.12,138.00 170.28,138.00 C165.74,138.00 165.72,137.99 148.56,121.00 C139.11,111.65 130.76,104.00 130.00,104.00 C129.57,104.00 127.68,105.46 125.08,107.74 C128.09,104.89 129.78,103.31 129.94,103.21 C130.20,103.05 126.97,99.49 122.77,95.29 L 115.13 87.65 L 115.12 87.66 L 107.31 79.81 C103.01,75.49 98.98,72.07 98.34,72.23 C97.71,72.38 90.10,79.40 81.45,87.84 L 65.72 103.17 L 69.60 107.07 L 49.91 87.40 C34.57,72.06 20.87,58.73 16.90,55.23 C19.75,57.54 26.75,64.15 33.99,71.43 C42.51,79.99 49.95,87.00 50.54,87.00 C51.12,87.00 58.55,80.34 67.05,72.19 C94.30,46.09 94.40,46.00 99.24,45.96 L 103.50 45.93 ZM 81.45 118.93 L 83.95 116.73 C85.35,115.50 91.00,110.18 96.50,104.89 C102.00,99.60 108.44,93.57 110.81,91.47 L 115.10 87.68 L 110.82 91.50 C108.44,93.62 100.91,100.71 94.08,107.25 L 81.67 119.14 ZM 85.90 144.11 C82.08,146.74 80.68,146.18 78.26,145.07 C80.67,146.17 82.72,146.13 85.90,144.11 ZM 14.44 53.80 C13.04,53.36 11.17,53.05 9.65,53.04 C9.24,53.03 8.86,53.04 8.51,53.06 C10.40,52.75 12.42,52.99 14.44,53.80 Z" fill="rgb(208,226,23)"/>
<path d="M 0.01 122.75 C0.01,67.97 0.09,65.61 1.76,68.12 C4.77,72.65 75.54,143.83 78.26,145.07 C83.70,147.55 83.99,147.32 118.05,114.25 C123.86,108.61 129.23,104.00 130.00,104.00 C130.76,104.00 139.11,111.65 148.56,121.00 C165.72,137.99 165.74,138.00 170.28,138.00 C174.12,138.00 175.22,137.53 177.41,134.92 L 180.00 131.85 L 180.00 155.92 L 180.00 180.00 L 90.00 180.00 L 0.00 180.00 L 0.01 122.75 ZM 141.42 84.46 L 103.50 45.93 L 99.24 45.96 C94.40,46.00 94.30,46.09 67.05,72.19 C58.55,80.34 51.12,87.00 50.54,87.00 C49.95,87.00 42.51,79.99 33.99,71.43 C25.47,62.87 17.28,55.22 15.80,54.43 C11.11,51.95 6.19,52.59 2.90,56.11 L 0.00 59.21 L 0.00 29.61 L 0.00 0.00 L 90.00 0.00 L 180.00 0.00 L 180.00 61.50 C180.00,95.32 179.85,123.00 179.67,123.00 C179.49,123.00 162.28,105.66 141.42,84.46 ZM 73.57 111.07 L 65.72 103.17 L 81.45 87.84 C90.10,79.40 97.71,72.38 98.34,72.23 C98.98,72.07 103.01,75.49 107.31,79.81 L 115.12 87.66 L 110.81 91.47 C108.44,93.57 102.00,99.60 96.50,104.89 C91.00,110.18 85.35,115.50 83.95,116.73 L 81.41 118.96 L 73.57 111.07 Z" fill="rgb(253,254,253)"/>
</g>
</svg>